<svg width="175" height="25" viewBox="0 0 175 25" fill="none" xmlns="http://www.w3.org/2000/svg">
<path d="M11.9957 9C11.8632 8.51705 11.669 8.06487 11.4134 7.64347C11.1577 7.21733 10.8404 6.84564 10.4616 6.52841C10.0876 6.20644 9.65436 5.95549 9.16193 5.77557C8.67424 5.59564 8.12974 5.50568 7.52841 5.50568C6.58144 5.50568 5.7339 5.75189 4.9858 6.24432C4.23769 6.73674 3.64583 7.44697 3.21023 8.375C2.77936 9.30303 2.56392 10.4205 2.56392 11.7273C2.56392 13.0294 2.78172 14.1444 3.21733 15.0724C3.65294 16.0005 4.24953 16.7131 5.0071 17.2102C5.76941 17.7027 6.64062 17.9489 7.62074 17.9489C8.51563 17.9489 9.30635 17.75 9.9929 17.3523C10.6795 16.9545 11.2145 16.3864 11.598 15.6477C11.9863 14.9091 12.1757 14.0308 12.1662 13.0128L12.5923 13.1477H7.93324V11.9545H13.4588V13.1477C13.4588 14.3883 13.2079 15.4607 12.706 16.3651C12.2041 17.2694 11.5152 17.9678 10.6392 18.4602C9.76326 18.9527 8.7571 19.1989 7.62074 19.1989C6.3518 19.1989 5.24148 18.8935 4.28977 18.2827C3.33807 17.6671 2.59706 16.8007 2.06676 15.6832C1.54119 14.5611 1.27841 13.2424 1.27841 11.7273C1.27841 10.5862 1.42992 9.55634 1.73295 8.63778C2.03598 7.71922 2.46449 6.93324 3.01847 6.27983C3.57718 5.62642 4.23769 5.12689 5 4.78125C5.76231 4.43087 6.60511 4.25568 7.52841 4.25568C8.32386 4.25568 9.05066 4.38115 9.70881 4.6321C10.3717 4.88305 10.9541 5.22869 11.456 5.66903C11.9626 6.10464 12.3769 6.6089 12.6989 7.18182C13.0256 7.75 13.2457 8.35606 13.3594 9H11.9957ZM19.5401 19.2486C18.882 19.2486 18.2807 19.1207 17.7362 18.8651C17.1916 18.6046 16.7584 18.2306 16.4364 17.7429C16.1145 17.2505 15.9535 16.6539 15.9535 15.9531C15.9535 15.4134 16.0553 14.9588 16.2589 14.5895C16.4625 14.2202 16.7513 13.9171 17.1254 13.6804C17.4994 13.4437 17.9421 13.2566 18.4535 13.1193C18.9648 12.982 19.5283 12.8755 20.1438 12.7997C20.7546 12.724 21.2707 12.6577 21.6921 12.6009C22.1183 12.544 22.4426 12.4541 22.6651 12.331C22.8877 12.2079 22.9989 12.009 22.9989 11.7344V11.4787C22.9989 10.7353 22.7764 10.1506 22.3313 9.72443C21.891 9.29356 21.2565 9.07812 20.4279 9.07812C19.6419 9.07812 19.0004 9.25095 18.5032 9.59659C18.0108 9.94223 17.6651 10.3494 17.4663 10.8182L16.266 10.3849C16.5122 9.78835 16.8531 9.3125 17.2887 8.95739C17.7243 8.59754 18.212 8.33949 18.7518 8.18324C19.2915 8.02225 19.8384 7.94176 20.3924 7.94176C20.8091 7.94176 21.2423 7.99621 21.6921 8.10511C22.1467 8.21401 22.5681 8.40341 22.9563 8.6733C23.3446 8.93845 23.6594 9.31013 23.9009 9.78835C24.1424 10.2618 24.2631 10.8632 24.2631 11.5923V19H22.9989V17.2741H22.9208C22.7693 17.5961 22.5444 17.9086 22.2461 18.2116C21.9478 18.5147 21.5737 18.7633 21.1239 18.9574C20.6741 19.1515 20.1462 19.2486 19.5401 19.2486ZM19.7106 18.0909C20.3829 18.0909 20.9653 17.9418 21.4577 17.6435C21.9502 17.3452 22.329 16.9498 22.5941 16.4574C22.864 15.9602 22.9989 15.4134 22.9989 14.8168V13.2401C22.9042 13.33 22.7456 13.4105 22.5231 13.4815C22.3053 13.5526 22.052 13.6165 21.7631 13.6733C21.479 13.7254 21.195 13.7704 20.9109 13.8082C20.6268 13.8461 20.3711 13.8793 20.1438 13.9077C19.5283 13.9834 19.0027 14.1018 18.5671 14.2628C18.1315 14.4238 17.7977 14.6463 17.5657 14.9304C17.3337 15.2098 17.2177 15.5696 17.2177 16.0099C17.2177 16.6728 17.4544 17.1866 17.9279 17.5511C18.4014 17.911 18.9956 18.0909 19.7106 18.0909ZM28.8903 4.45455V19H27.6261V4.45455H28.8903ZM35.2823 19.2486C34.6242 19.2486 34.0228 19.1207 33.4783 18.8651C32.9338 18.6046 32.5006 18.2306 32.1786 17.7429C31.8567 17.2505 31.6957 16.6539 31.6957 15.9531C31.6957 15.4134 31.7975 14.9588 32.0011 14.5895C32.2047 14.2202 32.4935 13.9171 32.8675 13.6804C33.2416 13.4437 33.6843 13.2566 34.1957 13.1193C34.707 12.982 35.2705 12.8755 35.886 12.7997C36.4968 12.724 37.0129 12.6577 37.4343 12.6009C37.8604 12.544 38.1848 12.4541 38.4073 12.331C38.6299 12.2079 38.7411 12.009 38.7411 11.7344V11.4787C38.7411 10.7353 38.5186 10.1506 38.0735 9.72443C37.6332 9.29356 36.9987 9.07812 36.1701 9.07812C35.3841 9.07812 34.7425 9.25095 34.2454 9.59659C33.753 9.94223 33.4073 10.3494 33.2085 10.8182L32.0082 10.3849C32.2544 9.78835 32.5953 9.3125 33.0309 8.95739C33.4665 8.59754 33.9542 8.33949 34.494 8.18324C35.0337 8.02225 35.5806 7.94176 36.1346 7.94176C36.5513 7.94176 36.9845 7.99621 37.4343 8.10511C37.8888 8.21401 38.3103 8.40341 38.6985 8.6733C39.0868 8.93845 39.4016 9.31013 39.6431 9.78835C39.8846 10.2618 40.0053 10.8632 40.0053 11.5923V19H38.7411V17.2741H38.663C38.5115 17.5961 38.2866 17.9086 37.9883 18.2116C37.69 18.5147 37.3159 18.7633 36.8661 18.9574C36.4163 19.1515 35.8884 19.2486 35.2823 19.2486ZM35.4528 18.0909C36.1251 18.0909 36.7075 17.9418 37.1999 17.6435C37.6924 17.3452 38.0711 16.9498 38.3363 16.4574C38.6062 15.9602 38.7411 15.4134 38.7411 14.8168V13.2401C38.6464 13.33 38.4878 13.4105 38.2653 13.4815C38.0475 13.5526 37.7942 13.6165 37.5053 13.6733C37.2212 13.7254 36.9371 13.7704 36.6531 13.8082C36.369 13.8461 36.1133 13.8793 35.886 13.9077C35.2705 13.9834 34.7449 14.1018 34.3093 14.2628C33.8737 14.4238 33.5399 14.6463 33.3079 14.9304C33.0759 15.2098 32.9599 15.5696 32.9599 16.0099C32.9599 16.6728 33.1966 17.1866 33.6701 17.5511C34.1436 17.911 34.7378 18.0909 35.4528 18.0909ZM44.1495 8.09091L46.962 12.7429L49.7745 8.09091H51.2447L47.7362 13.5455L51.2447 19H49.7745L46.962 14.4972L44.1495 19H42.6864L46.1523 13.5455L42.6864 8.09091H44.1495ZM54.7763 23.0909C54.5253 23.0909 54.291 23.0672 54.0732 23.0199C53.8554 22.9725 53.6825 22.9205 53.5547 22.8636L53.8956 21.7486C54.3265 21.8812 54.71 21.9285 55.0462 21.8906C55.3823 21.8575 55.6806 21.706 55.9411 21.4361C56.2015 21.1709 56.4335 20.7637 56.6371 20.2145L57.0348 19.1065L53.022 8.09091H54.3928L57.6314 17.331H57.7308L60.9695 8.09091H62.3402L57.7237 20.7259C57.5296 21.2514 57.2905 21.6894 57.0064 22.0398C56.7223 22.3949 56.3932 22.6577 56.0192 22.8281C55.6499 23.0033 55.2356 23.0909 54.7763 23.0909ZM65.0763 4.45455H66.6104L71.8874 17.125H72.0153L77.2923 4.45455H78.8263V19H77.5763V7.25994H77.4627L72.555 19H71.3477L66.44 7.25994H66.3263V19H65.0763V4.45455ZM89.3626 14.831V8.09091H90.6268V19H89.3626V17.1889H89.2631C89.0075 17.7476 88.6026 18.214 88.0487 18.5881C87.4947 18.9574 86.8176 19.142 86.0174 19.142C85.3214 19.142 84.7035 18.9905 84.1637 18.6875C83.6239 18.3797 83.2002 17.9299 82.8924 17.3381C82.5846 16.7462 82.4308 16.0194 82.4308 15.1577V8.09091H83.695V15.0795C83.695 15.9318 83.9459 16.6184 84.4478 17.1392C84.9497 17.6553 85.5936 17.9134 86.3796 17.9134C86.872 17.9134 87.3455 17.795 87.8001 17.5582C88.2546 17.3215 88.6287 16.9759 88.9222 16.5213C89.2158 16.062 89.3626 15.4986 89.3626 14.831ZM101.303 10.4844L100.146 10.8111C100.032 10.4844 99.871 10.1884 99.6626 9.9233C99.4543 9.65814 99.1821 9.44744 98.8459 9.29119C98.5144 9.13494 98.1025 9.05682 97.6101 9.05682C96.8714 9.05682 96.2654 9.23201 95.7919 9.58239C95.3184 9.93277 95.0817 10.3849 95.0817 10.9389C95.0817 11.4077 95.2427 11.7888 95.5646 12.0824C95.8913 12.3712 96.3932 12.6009 97.0703 12.7713L98.718 13.1761C99.6319 13.3987 100.316 13.7514 100.771 14.2344C101.23 14.7173 101.46 15.3234 101.46 16.0526C101.46 16.6681 101.289 17.215 100.948 17.6932C100.607 18.1714 100.131 18.5478 99.5206 18.8224C98.9145 19.0923 98.2114 19.2273 97.4112 19.2273C96.3459 19.2273 95.4676 18.9882 94.7763 18.5099C94.085 18.027 93.6423 17.331 93.4482 16.4219L94.6626 16.1236C94.8189 16.7723 95.1243 17.2623 95.5788 17.5938C96.0381 17.9252 96.6418 18.0909 97.3899 18.0909C98.228 18.0909 98.898 17.9039 99.3999 17.5298C99.9018 17.151 100.153 16.6776 100.153 16.1094C100.153 15.669 100.006 15.2997 99.7124 15.0014C99.4188 14.6984 98.9737 14.4759 98.3771 14.3338L96.5945 13.9077C95.6475 13.6804 94.9467 13.3205 94.4922 12.8281C94.0376 12.3357 93.8104 11.7249 93.8104 10.9957C93.8104 10.3944 93.9737 9.86648 94.3004 9.41193C94.6271 8.95265 95.0769 8.5928 95.6499 8.33239C96.2228 8.07197 96.8762 7.94176 97.6101 7.94176C98.6091 7.94176 99.407 8.16903 100.004 8.62358C100.605 9.07339 101.038 9.69366 101.303 10.4844ZM108.638 19.2273C107.62 19.2273 106.739 18.9905 105.996 18.517C105.253 18.0388 104.677 17.3783 104.27 16.5355C103.868 15.688 103.667 14.7126 103.667 13.6094C103.667 12.5109 103.868 11.5355 104.27 10.6832C104.677 9.82623 105.239 9.15625 105.953 8.6733C106.673 8.18561 107.504 7.94176 108.446 7.94176C109.038 7.94176 109.609 8.05066 110.158 8.26847C110.707 8.48153 111.2 8.81061 111.635 9.25568C112.076 9.69602 112.424 10.2524 112.679 10.9247C112.935 11.5923 113.063 12.383 113.063 13.2969V13.9219H104.54V12.8068H111.77C111.77 12.1061 111.628 11.4763 111.344 10.9176C111.065 10.3542 110.674 9.90909 110.172 9.58239C109.675 9.25568 109.1 9.09233 108.446 9.09233C107.755 9.09233 107.147 9.27699 106.621 9.64631C106.096 10.0156 105.684 10.5033 105.385 11.1094C105.092 11.7154 104.943 12.3783 104.938 13.098V13.7656C104.938 14.6321 105.087 15.3897 105.385 16.0384C105.688 16.6823 106.117 17.1818 106.671 17.5369C107.225 17.892 107.881 18.0696 108.638 18.0696C109.154 18.0696 109.606 17.9891 109.995 17.8281C110.388 17.6671 110.717 17.4517 110.982 17.1818C111.252 16.9072 111.455 16.6065 111.593 16.2798L112.793 16.6705C112.627 17.1297 112.355 17.5535 111.976 17.9418C111.602 18.33 111.133 18.6425 110.57 18.8793C110.011 19.1113 109.367 19.2273 108.638 19.2273ZM122.781 14.831V8.09091H124.045V19H122.781V17.1889H122.681C122.425 17.7476 122.021 18.214 121.467 18.5881C120.913 18.9574 120.236 19.142 119.435 19.142C118.739 19.142 118.121 18.9905 117.582 18.6875C117.042 18.3797 116.618 17.9299 116.31 17.3381C116.003 16.7462 115.849 16.0194 115.849 15.1577V8.09091H117.113V15.0795C117.113 15.9318 117.364 16.6184 117.866 17.1392C118.368 17.6553 119.012 17.9134 119.798 17.9134C120.29 17.9134 120.763 17.795 121.218 17.5582C121.673 17.3215 122.047 16.9759 122.34 16.5213C122.634 16.062 122.781 15.4986 122.781 14.831ZM127.392 19V8.09091H128.62V9.76705H128.734C128.952 9.2036 129.314 8.76089 129.821 8.43892C130.332 8.11222 130.945 7.94886 131.66 7.94886C132.413 7.94886 133.031 8.12642 133.514 8.48153C134.002 8.83191 134.366 9.31487 134.608 9.9304H134.7C134.946 9.32434 135.346 8.84375 135.9 8.48864C136.459 8.12879 137.136 7.94886 137.931 7.94886C138.945 7.94886 139.745 8.26847 140.332 8.90767C140.919 9.54214 141.213 10.4702 141.213 11.6918V19H139.949V11.6918C139.949 10.83 139.728 10.1837 139.288 9.75284C138.848 9.32197 138.268 9.10653 137.548 9.10653C136.715 9.10653 136.073 9.36222 135.623 9.87358C135.173 10.3849 134.949 11.0336 134.949 11.8196V19H133.656V11.5781C133.656 10.8395 133.45 10.2429 133.038 9.78835C132.626 9.33381 132.046 9.10653 131.298 9.10653C130.796 9.10653 130.344 9.22964 129.941 9.47585C129.544 9.72206 129.229 10.0653 128.997 10.5057C128.77 10.9413 128.656 11.4432 128.656 12.0114V19H127.392Z" fill="white"/>
<path d="M159.422 18L160.422 15H167.422L167.922 18L165.422 17L163.422 23L161.422 17L159.422 18Z" fill="white" stroke="white" stroke-width="0.7"/>
<path d="M153.422 16.5L158.922 14" stroke="white" stroke-width="0.7"/>
<path d="M173.922 16.5L168.422 14" stroke="white" stroke-width="0.7"/>
<path d="M163.422 22.5L163.719 9.57812" stroke="white" stroke-width="0.7"/>
<path d="M169.203 12.0156L163.765 1L158.609 12.0156" stroke="white" stroke-width="0.7"/>
<path d="M166.127 5.82812L163.719 10L161.422 5.82813" stroke="white" stroke-width="0.7"/>
<path d="M169.203 7.51562L174.679 17" stroke="white" stroke-width="0.7"/>
<path d="M153 17L158.422 7.60938" stroke="white" stroke-width="0.7"/>
</svg>
